<?xml version="1.0" encoding="utf-8"?>
<!-- Generator: Adobe Illustrator 19.2.0, SVG Export Plug-In . SVG Version: 6.00 Build 0)  -->
<svg version="1.1" xmlns="http://www.w3.org/2000/svg" xmlns:xlink="http://www.w3.org/1999/xlink" x="0px" y="0px"
	 viewBox="0 0 425 404.3" style="enable-background:new 0 0 425 404.3;" xml:space="preserve">
<style type="text/css">
	.st0{fill:#F6AA1C;}
	.st1{fill:#1F427F;}
	.st2{fill:#FFFFFF;stroke:#F0E92D;stroke-width:3;stroke-miterlimit:10;}
	.st3{font-family:'Tokarev-Regular';}
	.st4{font-size:65.833px;}
	.st5{font-size:95.5906px;}
	.st6{font-size:30.3181px;}
</style>
<g id="Layer_2">
	<path class="st0" d="M219.8,6.2H240c3.6,0,6.5,2.9,6.5,6.5v27.6c0,2.8,1.8,5.3,4.5,6.2c6.5,2.1,18.4,6.2,24.9,10.1
		c2.5,1.5,5.7,1.1,7.9-0.9l18.9-18.3c2.6-2.5,6.7-2.4,9.2,0.2l37.4,38.7c2.5,2.5,2.4,6.6,0,9.1L332,102.8c-2,2-2.4,5-1.2,7.5
		c2.9,5.8,8,16.4,10.1,24.3c0.8,2.9,3.3,4.9,6.3,4.9h26.1c3.6,0,6.5,2.9,6.5,6.5v54.4c0,3.6-2.9,6.5-6.5,6.5h-26.2
		c-2.8,0-5.3,1.8-6.2,4.4c-2.3,6.8-6.9,19.6-10.5,25.9c-1.5,2.6-1,5.9,1.2,7.9l17.7,16.9c2.7,2.5,2.7,6.8,0.1,9.3l-38.5,38.1
		c-2.5,2.5-6.5,2.5-9.1,0.1l-18.3-17.4c-2-1.9-5-2.3-7.5-1c-5.8,3.1-16.6,8.5-23.7,10.4c-2.8,0.7-4.7,3.3-4.8,6.2l-0.5,26.3
		c-0.1,3.5-3,6.4-6.5,6.4h-36.1c-3.6,0,8.6-2.9,8.6-6.5v-321C213.2,9.1,216.2,6.2,219.8,6.2z"/>
	<path class="st1" d="M219.8,6.2h-34.8c-2.8,0-5,2.3-5,5v30.1c0,2.2-1.4,4.1-3.5,4.8c-6.5,2-20.3,6.7-26.9,11
		c-1.9,1.3-4.5,1-6.2-0.6l-20.9-20.1c-2-1.9-5.2-1.9-7.1,0.1L75.7,77.3c-1.9,2-1.9,5.1,0,7l19,19.2c1.5,1.5,1.9,3.9,0.9,5.8
		c-2.9,5.7-8.9,17.8-10.9,26.2c-0.5,2.3-2.5,3.9-4.8,3.9h-29c-2.8,0-5,2.3-5,5v57.3c0,2.8,2.3,5,5,5h28.9c2.1,0,4.1,1.4,4.8,3.4
		c2.3,6.7,7.6,21.6,11.4,27.8c1.2,2,0.9,4.6-0.8,6.3L75.3,263c-2.1,2-2.1,5.2-0.1,7.2l40.8,40.2c1.9,1.9,5,1.9,7,0.1l20.2-19.2
		c1.6-1.5,3.9-1.8,5.8-0.8c5.8,3.1,18.3,9.4,25.7,11.1c2.2,0.5,3.8,2.5,3.9,4.8l0.5,28.9c0,2.7,2.3,4.9,5,4.9h22.4l6.7-5v-324
		L219.8,6.2z"/>
	<circle class="st2" cx="213.2" cy="173.2" r="96.6"/>
</g>
<g id="Layer_1">
	<text transform="matrix(1 0 0 1 4.6577 395.1934)"><tspan x="0" y="0" class="st1 st3 st4">HACK-</tspan><tspan x="187.4" y="0" class="st0 st3 st4">A-</tspan><tspan x="251.5" y="0" class="st1 st3 st4">THON</tspan></text>
	<text transform="matrix(1 0 0 1 126.9676 206.6562)" class="st1 st3 st5">UAF</text>
	<text transform="matrix(1 0 0 1 176.8887 128.6719)" class="st0 st3 st6">2018</text>
</g>
</svg>
