<?xml version="1.0" encoding="utf-8"?>
<!-- Generator: Adobe Illustrator 19.2.0, SVG Export Plug-In . SVG Version: 6.00 Build 0)  -->
<svg version="1.1" xmlns="http://www.w3.org/2000/svg" xmlns:xlink="http://www.w3.org/1999/xlink" x="0px" y="0px"
	 viewBox="0 0 425 404.3" style="enable-background:new 0 0 425 404.3;" xml:space="preserve">
<style type="text/css">
	.st0{fill:#F6AA1C;}
	.st1{fill:#1F427F;}
	.st2{fill:#FFFFFF;stroke:#F0E92D;stroke-width:3;stroke-miterlimit:10;}
	.st3{font-family:'Tokarev-Regular';}
	.st4{font-size:74.0899px;}
	.st5{font-size:30.3181px;}
</style>
<g id="Layer_2">
	<path class="st0" d="M219.8,6.2H240c3.6,0,6.5,2.9,6.5,6.5v27.6c0,2.8,1.8,5.3,4.5,6.2c6.5,2.1,18.4,6.2,24.9,10.1
		c2.5,1.5,5.7,1.1,7.9-0.9l18.9-18.3c2.6-2.5,6.7-2.4,9.2,0.2l37.4,38.7c2.5,2.5,2.4,6.6,0,9.1L332,102.8c-2,2-2.4,5-1.2,7.5
		c2.9,5.8,8,16.4,10.1,24.3c0.8,2.9,3.3,4.9,6.3,4.9h26.1c3.6,0,6.5,2.9,6.5,6.5v54.4c0,3.6-2.9,6.5-6.5,6.5h-26.2
		c-2.8,0-5.3,1.8-6.2,4.4c-2.3,6.8-6.9,19.6-10.5,25.9c-1.5,2.6-1,5.9,1.2,7.9l17.7,16.9c2.7,2.5,2.7,6.8,0.1,9.3l-38.5,38.1
		c-2.5,2.5-6.5,2.5-9.1,0.1l-18.3-17.4c-2-1.9-5-2.3-7.5-1c-5.8,3.1-16.6,8.5-23.7,10.4c-2.8,0.7-4.7,3.3-4.8,6.2l-0.5,26.3
		c-0.1,3.5-3,6.4-6.5,6.4h-36.1c-3.6,0,8.6-2.9,8.6-6.5l-0.8-321.1C212.5,9,216.2,6.2,219.8,6.2z"/>
	<path class="st1" d="M219.8,6.2h-33.6c-3.5,0-6.3,2.8-6.3,6.3v28c0,2.7-1.8,5.1-4.3,6c-6.5,2.1-18.9,6.3-25.4,10.3
		c-2.4,1.5-5.5,1.1-7.5-0.9c-5.1-4.9-14-13.5-19.4-18.6c-2.5-2.4-6.4-2.3-8.8,0.1L76.5,76.4c-2.4,2.4-2.4,6.3,0,8.7L94,102.9
		c1.9,1.9,2.3,4.8,1.1,7.2c-3,5.8-8.2,16.7-10.3,24.7c-0.7,2.7-3.2,4.7-6,4.7c-7,0-19.3,0-26.8,0c-3.5,0-6.2,2.8-6.2,6.3v54.9
		c0,3.5,2.8,6.3,6.3,6.3h26.8c2.7,0,5,1.7,5.9,4.2c2.3,6.8,7.1,19.9,10.7,26.3c1.4,2.5,1,5.7-1.1,7.6c-4.9,4.7-13,12.3-18.1,17.2
		c-2.6,2.4-2.6,6.5-0.1,9l39,38.4c2.4,2.4,6.2,2.4,8.7,0.1l18.7-17.7c1.9-1.8,4.8-2.2,7.2-1c5.9,3.1,17,8.7,24.2,10.5
		c2.7,0.7,4.6,3.1,4.6,5.9c0.1,7,0.4,19.3,0.5,26.7c0.1,3.4,2.8,6.1,6.3,6.1h20.8c0.3,0,0.5-0.1,0.7-0.2l5.9-4.4
		c0.3-0.2,0.5-0.6,0.5-1V11.8c0-0.4,0.2-0.7,0.5-1L219.8,6.2z"/>
	<circle class="st2" cx="213.2" cy="173.2" r="96.6"/>
</g>
<g id="Layer_1">
	<text transform="matrix(1 0 0 1 4.6577 398.2356)"><tspan x="0" y="0" class="st1 st3 st4">HACK</tspan><tspan x="184.3" y="0" class="st0 st3 st4">A</tspan><tspan x="229.8" y="0" class="st1 st3 st4">THON</tspan></text>
	<g>
		<path class="st1" d="M181,206.8h-16.7h-5.6H153h-22.4v-67.2H153V162v22.4h5.6V162v-22.4H181V162V206.8z"/>
		<path class="st1" d="M238.9,206.8h-22.4v-20h-5.6v20h-22.4v-67.2h50.4V206.8z M216.5,162h-5.6v6.3h5.6V162z"/>
		<path class="st1" d="M297.3,162.2h-28v4.2h16.8v15.7h-16.8V207h-22.4v-67.2h50.4V162.2z"/>
	</g>
	<text transform="matrix(1 0 0 1 176.8887 128.6719)" class="st0 st3 st5">2018</text>
</g>
</svg>
