<?xml version="1.0" encoding="utf-8"?>
<!-- Generator: Adobe Illustrator 19.2.0, SVG Export Plug-In . SVG Version: 6.00 Build 0)  -->
<svg version="1.1" xmlns="http://www.w3.org/2000/svg" xmlns:xlink="http://www.w3.org/1999/xlink" x="0px" y="0px"
	 viewBox="0 0 1865 1774.3" style="enable-background:new 0 0 1865 1774.3;" xml:space="preserve">
<style type="text/css">
	.st0{display:none;fill:#1F427F;}
	.st1{fill:#1F427F;}
	.st2{fill:#F6AA1C;}
</style>
<g id="Layer_1">
	<g id="Layer_3">
	</g>
	<g id="Layer_2">
		<path class="st0" d="M936.3,1452.9V37.9V1452.9z"/>
		<g>
			<path class="st1" d="M512.9,745.4c0-233.8,189.6-423.4,423.4-423.4V13.3H817.4c-15.1,0-27.4,12.3-27.4,27.4v122.8
				c0,11.9-7.7,22.5-19,26.1c-28.7,9.2-82.7,27.6-111.3,45.3c-10.5,6.5-24.1,4.8-33-3.8c-22.4-21.5-61.4-59.1-84.9-81.7
				c-10.9-10.5-28.2-10.2-38.7,0.7L336.8,321.3c-10.4,10.7-10.3,27.7,0.2,38.4l76.7,77.7c8.3,8.4,10.3,21.2,4.9,31.7
				c-12.9,25.4-36,73.2-45.1,108.2c-3.1,12-13.8,20.5-26.3,20.5c-30.5,0-84.7,0-117.4,0c-15.1,0-27.4,12.3-27.4,27.4v240.5
				c0,15.1,12.3,27.4,27.4,27.4h117.3c11.7,0,22.1,7.4,25.9,18.5c10.2,29.7,30.9,87.4,46.7,115.1c6.3,11,4.3,24.8-4.9,33.5
				c-21.6,20.5-57,54.1-79.3,75.2c-11.2,10.7-11.4,28.5-0.3,39.4l171,168.5c10.5,10.4,27.4,10.5,38.1,0.4l82.1-77.8
				c8.5-8.1,21.2-9.8,31.6-4.4c25.7,13.5,74.6,37.9,106.1,46c11.8,3,20,13.7,20.2,25.9c0.6,30.8,1.5,84.7,2.1,117.2
				c0.3,14.9,12.5,26.9,27.4,26.9h122.4v-308.8C702.4,1168.8,512.9,979.3,512.9,745.4z"/>
			<path class="st1" d="M936.3,1477.6C935.3,1478.3,937.4,1477.6,936.3,1477.6L936.3,1477.6z"/>
		</g>
		<path class="st2" d="M1638.3,597.8h-114.4c-13.1,0-24.3-8.9-27.7-21.6c-9.1-34.6-31.5-81.2-44.3-106.5
			c-5.5-10.9-3.5-24.1,5.1-32.8l75.1-76.5c10.8-11,10.9-28.7,0.2-39.8L1368.4,151c-10.9-11.3-29-11.6-40.3-0.7l-82.9,80.1
			c-9.3,9-23.4,10.7-34.4,4c-28.4-17.3-80.7-35.3-109.2-44.5c-11.8-3.8-19.7-14.8-19.7-27.1v-121c0-15.7-12.8-28.5-28.5-28.5h-88.6
			c-15.7,0-31.8,0-31.8,0l0.7,308.7c0.9,0,1.7,0,2.6,0c233.8,0,423.4,189.6,423.4,423.4s-189.6,423.4-423.4,423.4
			c-0.2,0-0.4,0-0.6,0l0.6,280.4c0,15.7-53.5,28.5-37.8,28.5h158.4c15.5,0,28.2-12.5,28.5-28l2.1-115.3c0.2-12.7,8.8-23.7,21-27
			c31-8.2,78.4-31.9,104-45.4c10.8-5.7,24-3.8,32.9,4.6l80.1,76.3c11.2,10.6,28.8,10.5,39.7-0.4l168.6-166.9
			c11.4-11.3,11.2-29.8-0.4-40.9l-77.5-73.9c-9.5-9.1-11.5-23.3-5.1-34.8c15.6-27.7,35.7-84,45.9-113.6c4-11.5,14.8-19.3,27-19.3
			h114.6c15.7,0,28.5-12.8,28.5-28.5V626.3C1666.8,610.5,1654,597.8,1638.3,597.8z"/>
	</g>
	<g id="Layer_3_copy">
	</g>
</g>
<g id="Layer_2_1_">
	<g>
		<path d="M753.2,565.7l-40.6,46.5h61.6v32.9H658.9v-30.4l58.6-67.5c8.2-9.4,11.4-16.3,11.4-26.5c0-12.1-4.5-18.8-14.8-18.8
			c-10.4,0-14.8,6.7-14.8,18.8v8.4h-42.8v-7.9c0-28.2,20-52.2,57.6-52.2c37.6,0,57.6,24,57.6,52.2
			C771.7,539.5,766.8,549.9,753.2,565.7z"/>
		<path d="M903.9,631.3c-9.6,11.1-24.2,16.8-44,16.8c-19.8,0-34.4-5.7-44-16.8c-12.9-14.8-17.8-37.6-17.8-72.7
			c0-35.1,4.9-57.9,17.8-72.7c9.6-11.1,24.2-16.8,44-16.8c19.8,0,34.4,5.7,44,16.8c12.9,14.8,17.8,37.6,17.8,72.7
			C921.7,593.7,916.7,616.5,903.9,631.3z M873.7,509.6c-3.2-5.4-7.9-7.7-13.9-7.7c-5.9,0-10.6,2.2-13.9,7.7c-4.2,7.4-5.2,23-5.2,49
			c0,26,1,41.6,5.2,49c3.2,5.4,7.9,7.7,13.9,7.7c5.9,0,10.6-2.2,13.9-7.7c4.2-7.4,5.2-23,5.2-49C878.9,532.6,877.9,517,873.7,509.6z
			"/>
		<path d="M994.7,645.2V510.1L960,525.4v-34.6l40.8-18.8h36.6v173.2H994.7z"/>
		<path d="M1208.4,515.8c0,17.8-10.4,31.7-25.2,37.4c18.1,6.4,30.4,20.3,30.4,43.1c0,32.2-24.5,52-62.8,52
			c-38.4,0-62.8-19.8-62.8-52c0-22.8,12.4-36.6,30.4-43.1c-14.8-5.7-25.2-19.5-25.2-37.4c0-28,22-46.8,57.6-46.8
			C1186.4,469,1208.4,487.8,1208.4,515.8z M1170.8,592c0-15.1-7.7-23-20-23s-20,7.9-20,23c0,15.3,7.7,23.3,20,23.3
			S1170.8,607.3,1170.8,592z M1166.9,519.7c0-11.4-5.9-17.8-16.1-17.8c-10.1,0-16.1,6.4-16.1,17.8s5.9,17.6,16.1,17.6
			C1160.9,537.3,1166.9,531.1,1166.9,519.7z"/>
	</g>
	<g>
		<path d="M572.6,887.9V712.1h71.7v178.7c0,34.1,13.6,49.3,39.3,49.3s39.3-15.2,39.3-49.3V712.1h71.7v175.9
			c0,67.3-35.7,109.4-111,109.4C608.3,997.3,572.6,955.2,572.6,887.9z"/>
		<path d="M974.5,712.1l88.9,280.4h-72.1l-12.4-46.9h-82.1l-12,46.9h-72.1l88.9-280.4H974.5z M911.2,891.1h53.7L938,788.6
			L911.2,891.1z"/>
		<path d="M1091.1,712.1h178.7v57.3h-107v54.9h94.5v57.3h-94.5v111h-71.7V712.1z"/>
	</g>
	<g>
		<path d="M139.4,1634.5H86.2v92.5H28.5v-225.6h57.7v87h53.2v-87h57.7v225.6h-57.7V1634.5z"/>
		<path d="M349.6,1501.4l71.6,225.6h-58l-10-37.7h-66.1l-9.7,37.7h-58l71.6-225.6H349.6z M298.7,1645.5h43.2l-21.6-82.5
			L298.7,1645.5z"/>
		<path d="M455.3,1525.6c15.8-18.7,38.7-28,69.9-28c58.7,0,91.9,34.8,91.9,83.2h-57.4c-0.6-23.5-12.6-37.1-34.5-37.1
			c-11.9,0-20.3,4.2-26.4,12.9c-7.1,10.6-9.7,26.4-9.7,57.7c0,31.3,2.6,47.1,9.7,57.7c6.1,8.7,14.5,12.9,26.4,12.9
			c21.9,0,34.5-13.9,34.5-37.1h57.4c0,48.4-33.2,83.2-91.9,83.2c-31.3,0-54.2-9.3-69.9-28c-17.7-21.3-23.9-51.6-23.9-88.6
			S437.6,1546.9,455.3,1525.6z"/>
		<path d="M770.6,1611.3l63.8,115.7h-62.5l-47.7-92.5h-16.8v92.5h-57.7v-225.6h57.7v87h16.8l40.3-87h61.2L770.6,1611.3z"/>
		<path d="M965,1501.4l71.6,225.6h-58l-10-37.7h-66.1l-9.7,37.7h-58l71.6-225.6H965z M914,1645.5h43.2l-21.6-82.5L914,1645.5z"/>
		<path d="M1025.6,1501.4H1198v46.1h-57.4v179.5h-57.7v-179.5h-57.4V1501.4z"/>
		<path d="M1332.7,1634.5h-53.2v92.5h-57.7v-225.6h57.7v87h53.2v-87h57.7v225.6h-57.7V1634.5z"/>
		<path d="M1588,1702.9c-15.8,18.7-38.7,28-69.9,28c-31.3,0-54.2-9.3-69.9-28c-17.7-21.3-23.9-51.6-23.9-88.6s6.1-67.4,23.9-88.6
			c15.8-18.7,38.7-28,69.9-28c31.3,0,54.2,9.3,69.9,28c17.7,21.3,23.9,51.6,23.9,88.6S1605.8,1681.6,1588,1702.9z M1491.7,1671.9
			c6.1,8.7,14.5,12.9,26.4,12.9s20.3-4.2,26.4-12.9c7.1-10.6,9.7-27.1,9.7-57.7c0-30.6-2.6-47.1-9.7-57.7
			c-6.1-8.7-14.5-12.9-26.4-12.9s-20.3,4.2-26.4,12.9c-7.1,10.6-9.7,27.1-9.7,57.7C1482,1644.9,1484.6,1661.3,1491.7,1671.9z"/>
		<path d="M1701.8,1598.1v128.9h-56.1v-225.6h56.1l59.6,128.9v-128.9h56.1v225.6h-56.1L1701.8,1598.1z"/>
	</g>
</g>
</svg>
