<?xml version="1.0" encoding="utf-8"?>
<!-- Generator: Adobe Illustrator 19.2.0, SVG Export Plug-In . SVG Version: 6.00 Build 0)  -->
<svg version="1.1" xmlns="http://www.w3.org/2000/svg" xmlns:xlink="http://www.w3.org/1999/xlink" x="0px" y="0px"
	 viewBox="0 0 500 132.1" style="enable-background:new 0 0 500 132.1;" xml:space="preserve">
<g id="Layer_1">
	<g>
		<path d="M82.4,121.8h-21V101h-4.3v20.8H36.4V64.7h20.7v21.2h4.3V64.7h21v19V121.8z"/>
		<path d="M131.8,121.8h-19v-17H108v17H89V64.6h42.8V121.8z M112.8,83.7H108v5.4h4.8V83.7z"/>
		<path d="M179,122h-39.7V64.8H179v19h-20.7V103H179V122z"/>
		<path d="M219.1,93.5l14.8,28.5h-21.5l-4.1-7.9l-3.2-5.9V122h-19V64.9h9.5h9.5v13.9l7.2-13.9h21.5L219.1,93.5z"/>
		<path d="M281.7,121.8h-19v-17h-4.8v17h-19V64.6h42.8V121.8z M262.7,83.7h-4.8v5.4h4.8V83.7z"/>
		<path d="M328,84h-10.7v38h-19V84h-11.4V65H328V84z"/>
		<path d="M379.7,121.8h-21V101h-4.3v20.8h-20.7V64.7h20.7v21.2h4.3V64.7h21v19V121.8z"/>
		<path d="M429.3,122h-14.2h-4.8h-4.8h-19V64.9h19h4.8h19v19V122z M410.3,83.9h-4.8V103h4.8V83.9z"/>
		<path d="M465.5,64.8h19v57.1h-19v-6.4V110l-9.6-11.1v23.1h-19V64.8h19v4.8l9.6,11.1V64.8z"/>
	</g>
</g>
<g id="Layer_2">
	<g>
		<path d="M38.4,54.1v-4.7c2.1-3.7,6.5-7.7,13-12l4.2-2.8c5.4-3.6,8.2-7.2,8.2-10.7c0-2.3-0.9-4-2.8-5.3c-1.9-1.3-4.4-1.9-7.7-1.9
			c-3.8,0-8.4,1.1-13.6,3.3v-4.8c4.9-1.7,9.8-2.5,14.6-2.5c5.2,0,9.4,1,12.5,3.1c3.1,2,4.7,4.8,4.7,8.1c0,2.4-0.8,4.6-2.4,6.5
			c-1.6,1.9-4.5,4.2-8.9,6.8l-2.8,1.8c-5.9,3.7-9.3,7.2-10.3,10.5h24.1v4.7H38.4z"/>
		<path d="M104.5,55.1c-5.7,0-10.3-2-13.9-5.9c-3.5-3.9-5.3-9.1-5.3-15.4c0-6.4,1.8-11.5,5.3-15.4c3.6-3.9,8.2-5.8,14.1-5.8
			c5.8,0,10.5,1.9,14.1,5.8c3.6,3.9,5.3,9,5.3,15.3c0,6.5-1.8,11.7-5.3,15.6C115.3,53.2,110.5,55.1,104.5,55.1z M104.6,51.1
			c7.8,0,11.7-5.8,11.7-17.4c0-11.4-3.9-17-11.6-17c-7.7,0-11.5,5.7-11.5,17.2C93.2,45.3,97,51.1,104.6,51.1z"/>
		<path d="M140.5,54.1v-4.1h11.1V18l-11.1,2v-4.2l18.5-3.4v37.5h11.1v4.1H140.5z"/>
		<path d="M195.1,32c-5.4-2.8-8.1-5.8-8.1-9.2c0-3.1,1.5-5.6,4.6-7.5s7.1-2.9,12-2.9c4.6,0,8.3,0.8,11.1,2.4
			c2.8,1.6,4.2,3.7,4.2,6.3c0,3.9-3.4,7.5-10.3,10.7c8.4,3,12.5,6.9,12.5,11.6c0,3.4-1.8,6.2-5.3,8.3c-3.5,2.1-8,3.2-13.6,3.2
			c-5.4,0-9.8-1-13.2-3c-3.4-2-5-4.7-5-8C184.1,39.3,187.8,35.2,195.1,32z M199.1,34.2c-3,1.7-5,3.1-6,4.4c-1.1,1.3-1.6,2.8-1.6,4.7
			c0,2.3,1,4.2,3.1,5.6c2,1.4,4.7,2.2,8.1,2.2c3.2,0,5.8-0.6,7.9-1.8c2-1.2,3.1-2.8,3.1-4.8c0-1.6-0.6-2.9-1.9-4
			c-1.3-1.1-3.7-2.4-7.3-4L199.1,34.2z M204.5,30.3c5.2-2.5,7.8-5.3,7.8-8.3c0-1.6-0.9-2.9-2.6-3.9s-4-1.5-6.8-1.5
			c-2.7,0-4.9,0.5-6.6,1.5c-1.7,1-2.5,2.2-2.5,3.8c0,1.5,0.8,2.9,2.3,4.1C197.5,27.1,200.4,28.6,204.5,30.3z"/>
		<path d="M256.9,13.6h7.9v25.6c0,4.1,1,7,3.1,8.9c2.1,1.9,5.3,2.8,9.8,2.8c4.4,0,7.5-0.9,9.3-2.6s2.8-4.7,2.8-8.9V13.6h6.9v25.7
			c0,5.5-1.6,9.6-4.7,12.1c-3.1,2.5-8.1,3.8-14.8,3.8c-6.9,0-12-1.3-15.3-3.9s-4.9-6.6-4.9-12.1V13.6z"/>
		<path d="M346.9,54.1l-6-11.2h-23.5l-6.1,11.2H304l22-40.6h7.8l21.6,40.6H346.9z M338.6,38.6l-9.4-17.5l-9.5,17.5H338.6z"/>
		<path d="M363.4,54.1V13.6h31v4.3h-23.1v13.6h19.4v4.2h-19.4v18.4H363.4z"/>
	</g>
</g>
</svg>
