<?xml version="1.0" encoding="utf-8"?>
<!-- Generator: Adobe Illustrator 19.2.0, SVG Export Plug-In . SVG Version: 6.00 Build 0)  -->
<svg version="1.1" xmlns="http://www.w3.org/2000/svg" xmlns:xlink="http://www.w3.org/1999/xlink" x="0px" y="0px"
	 viewBox="0 0 1865 1774.3" style="enable-background:new 0 0 1865 1774.3;" xml:space="preserve">
<style type="text/css">
	.st0{display:none;fill:#1F427F;}
	.st1{fill:#1F427F;}
	.st2{fill:#F6AA1C;}
</style>
<g id="Layer_3">
</g>
<g id="Layer_2">
	<path class="st0" d="M936.3,1452.9V37.9V1452.9z"/>
	<g>
		<path class="st1" d="M512.9,745.4c0-233.8,189.6-423.4,423.4-423.4V13.3H817.4c-15.1,0-27.4,12.3-27.4,27.4v122.8
			c0,11.9-7.7,22.5-19,26.1c-28.7,9.2-82.7,27.6-111.3,45.3c-10.5,6.5-24.1,4.8-33-3.8c-22.4-21.5-61.4-59.1-84.9-81.7
			c-10.9-10.5-28.2-10.2-38.7,0.7L336.8,321.3c-10.4,10.7-10.3,27.7,0.2,38.4l76.7,77.7c8.3,8.4,10.3,21.2,4.9,31.7
			c-12.9,25.4-36,73.2-45.1,108.2c-3.1,12-13.8,20.5-26.3,20.5c-30.5,0-84.7,0-117.4,0c-15.1,0-27.4,12.3-27.4,27.4v240.5
			c0,15.1,12.3,27.4,27.4,27.4h117.3c11.7,0,22.1,7.4,25.9,18.5c10.2,29.7,30.9,87.4,46.7,115.1c6.3,11,4.3,24.8-4.9,33.5
			c-21.6,20.5-57,54.1-79.3,75.2c-11.2,10.7-11.4,28.5-0.3,39.4l171,168.5c10.5,10.4,27.4,10.5,38.1,0.4l82.1-77.8
			c8.5-8.1,21.2-9.8,31.6-4.4c25.7,13.5,74.6,37.9,106.1,46c11.8,3,20,13.7,20.2,25.9c0.6,30.8,1.5,84.7,2.1,117.2
			c0.3,14.9,12.5,26.9,27.4,26.9h122.4v-308.8C702.4,1168.8,512.9,979.3,512.9,745.4z"/>
		<path class="st1" d="M936.3,1477.6C935.3,1478.3,937.4,1477.6,936.3,1477.6L936.3,1477.6z"/>
	</g>
	<path class="st2" d="M1638.3,597.8h-114.4c-13.1,0-24.3-8.9-27.7-21.6c-9.1-34.6-31.5-81.2-44.3-106.5c-5.5-10.9-3.5-24.1,5.1-32.8
		l75.1-76.5c10.8-11,10.9-28.7,0.2-39.8L1368.4,151c-10.9-11.3-29-11.6-40.3-0.7l-82.9,80.1c-9.3,9-23.4,10.7-34.4,4
		c-28.4-17.3-80.7-35.3-109.2-44.5c-11.8-3.8-19.7-14.8-19.7-27.1v-121c0-15.7-12.8-28.5-28.5-28.5h-88.6c-15.7,0-31.8,0-31.8,0
		l0.7,308.7c0.9,0,1.7,0,2.6,0c233.8,0,423.4,189.6,423.4,423.4s-189.6,423.4-423.4,423.4c-0.2,0-0.4,0-0.6,0l0.6,280.4
		c0,15.7-53.5,28.5-37.8,28.5h158.4c15.5,0,28.2-12.5,28.5-28l2.1-115.3c0.2-12.7,8.8-23.7,21-27c31-8.2,78.4-31.9,104-45.4
		c10.8-5.7,24-3.8,32.9,4.6l80.1,76.3c11.2,10.6,28.8,10.5,39.7-0.4l168.6-166.9c11.4-11.3,11.2-29.8-0.4-40.9l-77.5-73.9
		c-9.5-9.1-11.5-23.3-5.1-34.8c15.6-27.7,35.7-84,45.9-113.6c4-11.5,14.8-19.3,27-19.3h114.6c15.7,0,28.5-12.8,28.5-28.5V626.3
		C1666.8,610.5,1654,597.8,1638.3,597.8z"/>
</g>
<g id="Layer_1">
	<g>
		<path class="st1" d="M218,1732.7h-83.8v-83.2H117v83.2H34.1v-228.3H117v84.8h17.2v-84.8H218v76V1732.7z"/>
		<path class="st1" d="M415.5,1732.4h-76v-67.9h-19.2v67.9h-76v-228.3h171.2V1732.4z M339.5,1580.4h-19.2v21.4h19.2V1580.4z"/>
		<path class="st1" d="M604.2,1733.4H445.3v-228.7h158.8v76h-82.8v76.7h82.8V1733.4z"/>
		<path class="st1" d="M764.3,1619.4l59.1,114h-85.7l-16.2-31.5l-12.7-23.7v55.2h-76V1505h38h38v55.5l28.9-55.5h85.7L764.3,1619.4z"
			/>
		<path class="st2" d="M1014.7,1732.4h-76v-67.9h-19.2v67.9h-76v-228.3h171.2V1732.4z M938.7,1580.4h-19.2v21.4h19.2V1580.4z"/>
		<path class="st1" d="M1199.9,1581.7H1157v152h-76v-152h-45.5v-76h164.4V1581.7z"/>
		<path class="st1" d="M1406.4,1732.7h-83.8v-83.2h-17.2v83.2h-82.8v-228.3h82.8v84.8h17.2v-84.8h83.8v76V1732.7z"/>
		<path class="st1" d="M1604.6,1733.4h-56.8h-19.2h-19.2h-76V1505h76h19.2h76v76V1733.4z M1528.6,1581h-19.2v76.3h19.2V1581z"/>
		<path class="st1" d="M1749.4,1504.7h76V1733h-76v-25.7v-22.1l-38.3-44.5v92.2h-76v-228.3h76v19.2l38.3,44.2V1504.7z"/>
	</g>
	<g>
		<path class="st1" d="M794.8,893h-73.3h-24.7H672h-98.1V598.4H672v98.1v98.1h24.7v-98.1v-98.1h98.1v98.1V893z"/>
		<path class="st1" d="M1048.7,892.6h-98.1V805h-24.7v87.6h-98.1V598h220.8V892.6z M950.7,696.5h-24.7v27.7h24.7V696.5z"/>
		<path class="st1" d="M1304.8,697.3H1182v18.4h73.8v68.7H1182v109.4h-98.1V599.3h220.8V697.3z"/>
	</g>
	<g>
		<path class="st2" d="M852.6,550.6h-31.1h-38.9v-54.5h38.9v-7.8h-38.9v-31.1h70v54.5h-38.9v7.8h38.9V550.6z"/>
		<path class="st2" d="M934.9,550.8h-23.3h-7.8h-7.8h-31.1v-93.4h31.1h7.8h31.1v31.1V550.8z M903.8,488.5h-7.8v31.2h7.8V488.5z"/>
		<path class="st2" d="M989.4,550.8h-31.1v-63.3H947v-31.1h42.4V550.8z"/>
		<path class="st2" d="M1070.2,550.6h-70v-93.4h70V550.6z M1039.1,488.4h-7.8v7.7h7.8V488.4z M1039.1,511.6h-7.8v7.8h7.8V511.6z"/>
	</g>
</g>
<g id="Layer_3_copy">
</g>
</svg>
