<?xml version="1.0" encoding="utf-8"?>
<!-- Generator: Adobe Illustrator 19.2.0, SVG Export Plug-In . SVG Version: 6.00 Build 0)  -->
<svg version="1.1" xmlns="http://www.w3.org/2000/svg" xmlns:xlink="http://www.w3.org/1999/xlink" x="0px" y="0px"
	 viewBox="0 0 425 404.3" style="enable-background:new 0 0 425 404.3;" xml:space="preserve">
<style type="text/css">
	.st0{fill:#F6AA1C;}
	.st1{fill:#1F427F;}
	.st2{fill:#FFFFFF;stroke:#F0E92D;stroke-width:3;stroke-miterlimit:10;}
	.st3{font-family:'Tokarev-Regular';}
	.st4{font-size:74.0899px;}
	.st5{font-size:95.5906px;}
	.st6{font-size:30.3181px;}
</style>
<g id="Layer_2">
	<path class="st0" d="M213.2,6.2h33.2v38.9c0,0,0,0,0,0c0.1,0,28.4,8.3,33.2,14.6c0,0,27.7-26.7,27.7-26.7l46.3,47.9l-24.9,25.3
		c0,0,12.4,22.9,13.1,33.3c0,0,38,0,38,0v67.4h-37.3c0,0-11.1,34-15.2,34c0,0,27,25.7,27,25.7l-47.7,47.2l-26.3-25
		c0,0-24.9,13.9-32.5,13.2l-0.7,38.2h-42.5c-3.6,0,8.6-2.9,8.6-6.5V6.2z"/>
	<path class="st1" d="M219.8,6.2h-39.9v38.9c0,0-28.5,8.3-33.3,14.6c0,0-27.8-26.7-27.8-26.7L72.2,80.8l25,25.3
		c0,0-12.5,22.9-13.2,33.3c0,0-38.2,0-38.2,0v67.4h37.5c0,0,11.1,34,15.3,34l-27.1,25.7l47.9,47.2l26.4-25c0,0,25,13.9,32.6,13.2
		c0,0,0.7,38.2,0.7,38.2h27.4l6.7-5v-324L219.8,6.2z"/>
	<circle class="st2" cx="213.2" cy="173.2" r="96.6"/>
</g>
<g id="Layer_1">
	<text transform="matrix(1 0 0 1 4.6577 398.2356)" class="st1 st3 st4">HACKATHON</text>
	<text transform="matrix(1 0 0 1 126.9676 206.6562)" class="st1 st3 st5">UAF</text>
	<text transform="matrix(1 0 0 1 176.8887 128.6719)" class="st0 st3 st6">2018</text>
</g>
</svg>
