<?xml version="1.0" standalone="no"?>
<!DOCTYPE svg PUBLIC "-//W3C//DTD SVG 20010904//EN"
 "http://www.w3.org/TR/2001/REC-SVG-20010904/DTD/svg10.dtd">
<svg version="1.0" xmlns="http://www.w3.org/2000/svg"
 width="512.000000pt" height="512.000000pt" viewBox="0 0 512.000000 512.000000"
 preserveAspectRatio="xMidYMid meet">
<metadata>
Created by potrace 1.15, written by Peter Selinger 2001-2017
</metadata>
<g transform="translate(0.000000,512.000000) scale(0.100000,-0.100000)"
fill="#000000" stroke="none">
<path d="M2330 5014 c-613 -74 -1100 -304 -1510 -714 -377 -377 -607 -830
-697 -1375 -26 -157 -26 -574 0 -730 91 -545 319 -996 692 -1370 382 -384 828
-610 1380 -702 157 -26 573 -26 730 0 474 79 861 254 1223 554 392 326 690
808 807 1308 51 216 60 305 60 575 0 200 -4 279 -18 365 -74 447 -232 812
-506 1165 -95 123 -308 332 -441 431 -269 202 -589 356 -895 430 -197 48 -313
61 -555 64 -129 2 -251 1 -270 -1z m410 -284 c763 -66 1438 -527 1774 -1214
151 -308 220 -606 220 -956 0 -350 -69 -648 -220 -956 -277 -567 -796 -992
-1404 -1150 -196 -51 -329 -67 -550 -67 -221 0 -354 16 -550 67 -764 199
-1360 800 -1560 1572 -87 336 -87 732 0 1068 75 289 202 554 378 786 72 95
245 274 342 355 432 360 1012 543 1570 495z"/>
<path d="M2435 4369 c-646 -39 -1232 -436 -1512 -1026 -136 -285 -193 -588
-172 -908 37 -578 357 -1110 851 -1417 322 -200 689 -290 1080 -267 812 49
1502 655 1658 1455 169 870 -307 1732 -1130 2049 -239 92 -499 130 -775 114z
m300 -819 l169 -520 554 0 c332 0 551 -4 548 -9 -4 -5 -203 -152 -444 -327
-240 -174 -439 -319 -440 -320 -2 -1 73 -238 166 -526 94 -287 169 -524 167
-527 -2 -2 -201 140 -442 315 -241 175 -444 318 -453 318 -9 0 -212 -143 -453
-318 -241 -175 -440 -317 -442 -315 -2 3 73 240 167 527 93 288 168 525 166
526 -1 1 -200 146 -440 320 -241 175 -440 322 -444 327 -3 5 216 9 548 9 l554
0 169 520 c93 286 171 520 175 520 4 0 82 -234 175 -520z"/>
</g>
</svg>
